<?xml version="1.0" standalone="no"?>
<!DOCTYPE svg PUBLIC "-//W3C//DTD SVG 20010904//EN"
 "http://www.w3.org/TR/2001/REC-SVG-20010904/DTD/svg10.dtd">
<svg version="1.0" xmlns="http://www.w3.org/2000/svg"
 width="198.000000pt" height="198.000000pt" viewBox="0 0 198.000000 198.000000"
 preserveAspectRatio="xMidYMid meet">

<g transform="translate(0.000000,198.000000) scale(0.100000,-0.100000)"
fill="#000000" stroke="none">
<path d="M495 1098 c-2 -13 -8 -58 -13 -100 -7 -70 -6 -78 9 -78 13 0 19 17
28 88 6 49 11 94 11 100 0 22 -30 12 -35 -10z"/>
<path d="M836 1104 c-3 -9 -6 -23 -6 -33 0 -14 -6 -17 -29 -13 -41 6 -73 -37
-69 -92 3 -37 6 -41 31 -44 16 -2 35 2 43 9 10 8 14 8 14 0 0 -6 6 -11 14 -11
10 0 16 20 20 68 4 37 10 82 13 100 4 24 2 32 -10 32 -8 0 -18 -7 -21 -16z
m-14 -99 c-4 -34 -35 -71 -51 -61 -28 18 5 100 37 94 12 -3 16 -12 14 -33z"/>
<path d="M922 1103 c4 -21 33 -25 33 -3 0 8 -8 16 -18 18 -14 3 -18 -1 -15
-15z"/>
<path d="M576 1028 c-16 -103 -15 -108 3 -108 14 0 20 10 24 47 5 46 29 79 49
66 6 -3 7 -28 3 -60 -6 -50 -5 -54 12 -51 15 3 18 13 18 68 0 60 -2 65 -23 68
-13 2 -30 -2 -38 -8 -10 -9 -14 -9 -14 -1 0 6 -7 11 -15 11 -8 0 -16 -13 -19
-32z"/>
<path d="M917 1053 c-2 -5 -7 -36 -11 -70 -6 -53 -5 -63 8 -63 17 0 22 18 29
93 3 34 1 47 -9 47 -7 0 -15 -3 -17 -7z"/>
</g>
</svg>
